# xmcd CD database file
#
# Track frame offsets:
#	150
#	18032
#	37411
#	55960
#	79151
#	103232
#	124066
#	140002
#	159773
#	180425
#	195260
#	213991
#
# Disc length: 3058 seconds
#
# Revision: 0
# Processed by: cddbd v1.5.2PL0 Copyright (c) Steve Scherf et al.
# Submitted via: CDex 1.51
#
DISCID=9d0bf00c
DTITLE=Tom Stryker and Tony Luisi - East West Collaboration
DYEAR=2008
DGENRE=Jazz
TTITLE0=Emily
TTITLE1=Killer Joe
TTITLE2=I'm Old Fashioned
TTITLE3=Lil Darlin'
TTITLE4=A Time For Love
TTITLE5=You Are My Sunshine
TTITLE6=Moten Swing
TTITLE7=Ceora
TTITLE8=Stolen Moments
TTITLE9=Mercy, Mercy, Mercy
TTITLE10=Dialogue
TTITLE11=New High The Moon - Beautiful Dreamer
EXTD=YEAR: 2008
EXTT0=
EXTT1=
EXTT2=
EXTT3=
EXTT4=
EXTT5=
EXTT6=
EXTT7=
EXTT8=
EXTT9=
EXTT10=
EXTT11=
PLAYORDER=
